<svg width="80" height="28" viewBox="0 0 80 28" fill="none" xmlns="http://www.w3.org/2000/svg">
<path d="M0 13.57V22.2662H0.791964H1.58393L1.62353 20.871C1.66313 20.1256 1.68292 18.8642 1.68292 18.1188C1.68292 17.3543 1.74232 16.7045 1.80172 16.6853C1.94031 16.628 7.95924 21.8649 8.07804 22.1133C8.11763 22.2089 8.65221 22.2662 9.26598 22.2662H10.3747L9.78076 21.7311C9.46397 21.4444 7.89984 20.0683 6.29612 18.6731C4.69239 17.2778 3.34605 16.0737 3.28665 15.9782C3.22725 15.8826 4.73199 14.583 6.6327 13.0731L10.0777 10.3208L9.10759 10.2635L8.15723 10.2062L5.04877 12.7099C3.34605 14.0669 1.88092 15.1946 1.80172 15.1946C1.72252 15.1946 1.64333 13.5891 1.64333 11.6014C1.64333 9.63278 1.64333 7.32016 1.62353 6.44098L1.58393 4.87374H0.791964H0V13.57Z" fill="white"/>
<path d="M39.9941 13.57V22.2663H40.8851H41.7761V13.57V4.8738H40.8851H39.9941V13.57Z" fill="white"/>
<path d="M29.3427 10.0724C27.4024 10.2635 26.1352 10.7987 26.1352 11.4485C26.1352 12.1365 26.3332 12.1748 27.6399 11.7352C29.0457 11.2382 31.481 11.1618 32.3719 11.5823C33.0847 11.9072 33.6589 12.9393 33.6589 13.8758V14.5638L31.6394 14.6785C29.3625 14.7932 28.3131 15.099 27.046 15.9591C24.4325 17.7748 24.9869 21.5017 27.9963 22.2853C29.6594 22.7249 31.8572 22.1133 33.0649 20.8519C33.7381 20.1638 33.7579 20.1638 33.8965 20.5843C33.9559 20.8328 34.0153 21.3106 34.0351 21.6355C34.0549 22.2471 34.0944 22.2662 34.8666 22.2662H35.6982L35.5398 21.4444C35.4606 21.0048 35.3418 18.7495 35.2626 16.4178L35.1438 12.1939L34.5894 11.4867C33.5797 10.2253 32.0353 9.8048 29.3427 10.0724ZM33.6589 17.0103C33.6589 18.5202 33.2233 19.4758 32.1343 20.3359C31.481 20.871 30.3326 21.2341 29.5605 21.1768C29.4219 21.1768 29.0853 21.1577 28.8081 21.1386C28.5309 21.1386 28.0359 20.871 27.6993 20.5843C27.1648 20.1256 27.0856 19.9154 27.0658 19.0553C27.0262 16.9911 28.9071 15.8635 32.5303 15.787L33.6589 15.7679V17.0103Z" fill="white"/>
<path d="M15.424 10.2062C14.0777 10.6267 12.7512 11.869 12.0186 13.4171C11.6622 14.1625 11.583 14.6785 11.583 16.2458C11.583 17.985 11.6424 18.2717 12.1572 19.2465C13.2263 21.2915 14.6915 22.2471 17.008 22.4C19.4037 22.5721 21.5222 21.3871 22.5913 19.2847C23.0071 18.4628 23.0665 18.0806 23.0665 16.1502C23.0665 14.2581 23.0071 13.8376 22.6309 13.1686C21.9775 12.0028 21.245 11.2383 20.2352 10.6649C19.4829 10.2253 19.0671 10.1488 17.6415 10.0915C16.711 10.0724 15.7012 10.1106 15.424 10.2062ZM19.3443 11.697C21.3044 12.5761 22.1755 16.3604 21.0074 18.9215C19.6808 21.8075 15.2656 21.9031 13.8401 19.0936C13.3055 18.0041 13.1075 15.5386 13.4441 14.3154C13.7015 13.3789 14.3549 12.4041 15.0875 11.8881C16.0972 11.1618 17.9781 11.0854 19.3443 11.697Z" fill="white"/>
<path d="M48.31 10.3018C46.9637 10.6649 46.5281 10.9516 46.5281 11.4676C46.5281 12.1557 46.8251 12.213 48.0724 11.7352C49.3792 11.2574 52.0521 11.1427 52.8242 11.5441C53.5172 11.9072 54.0518 12.882 54.0518 13.7994V14.6212H52.8044C49.4188 14.6212 46.9439 15.6915 46.1519 17.5072C45.6371 18.6349 45.6371 19.4567 46.1123 20.4697C46.8053 21.9222 48.1912 22.5912 50.1513 22.381C51.5373 22.2472 53.0222 21.5209 53.6756 20.6799L54.131 20.0683L54.2696 20.5461C54.3488 20.8137 54.4082 21.3106 54.428 21.6356C54.4478 22.2472 54.4873 22.2663 55.2595 22.2663C56.0713 22.2663 56.0713 22.2663 55.9723 21.6356C55.8931 21.3106 55.7941 19.342 55.7347 17.297C55.5763 12.213 55.5565 12.0792 54.6853 11.2001C54.2498 10.7605 53.636 10.3782 53.1608 10.2444C52.1313 9.97685 49.4386 9.99597 48.31 10.3018ZM54.0518 17.0103C54.0518 19.1127 52.8242 20.699 50.8839 21.1004C48.607 21.5782 47.1419 20.4124 47.5379 18.3864C47.8348 16.7618 49.7158 15.8444 52.8242 15.7871L54.0518 15.768V17.0103Z" fill="white"/>
<path d="M63.6146 0.420481C63.1988 0.821847 63.1592 1.0512 63.1592 2.58021V4.31946L63.6542 3.86075C64.1293 3.44028 64.1689 3.3256 64.1095 1.70103L64.0501 3.8147e-06L63.6146 0.420481Z" fill="#31B492"/>
<path d="M69.7724 4.28126C65.9907 5.98228 65.179 10.3209 68.1092 13.054C71.8513 16.5325 78.187 12.9775 77.0386 8.04645C76.7614 6.80413 75.6329 5.35157 74.3855 4.60618C73.1382 3.86078 71.0197 3.70788 69.7724 4.28126ZM72.6036 9.04031C73.1778 9.40345 73.4946 11.5441 73.059 12.3277C72.6036 13.1495 70.8613 12.9202 70.5445 11.9837C70.2673 11.1618 70.5445 9.46078 70.9801 9.15498C71.3761 8.86829 72.2274 8.81096 72.6036 9.04031Z" fill="#31B492"/>
<path d="M71.514 9.88121C71.3754 10.015 71.2764 10.531 71.2764 11.028C71.2764 11.9263 71.2962 11.9454 71.8703 11.9454C72.4049 11.9454 72.4643 11.888 72.4445 11.3147C72.4049 9.99589 72.0089 9.40339 71.514 9.88121Z" fill="#31B492"/>
<path d="M63.9509 4.70175C62.7828 5.88673 63.456 7.77888 65.1389 8.04646L65.8318 8.16113L65.1389 7.79799C62.9412 6.68946 64.2083 3.89901 66.505 4.7782L67.2178 5.06489L66.6634 4.58707C65.8318 3.8799 64.7231 3.91813 63.9509 4.70175Z" fill="#31B492"/>
<path d="M76.6823 4.58703L76.1279 5.06485L76.8803 4.77816C78.979 3.95632 80.3055 6.59386 78.3652 7.74062C77.6129 8.18021 77.9494 8.25666 78.8008 7.83618C80.1669 7.14813 80.4045 5.81024 79.3156 4.75905C78.4642 3.93721 77.5139 3.87987 76.6823 4.58703Z" fill="#31B492"/>
<path d="M65.1786 5.67649C64.8024 6.03963 64.9014 6.74679 65.3568 6.97614C65.832 7.22461 65.7726 7.26283 66.228 6.42188C66.5051 5.88673 66.5051 5.75294 66.2874 5.61915C65.9112 5.3898 65.4558 5.40891 65.1786 5.67649Z" fill="#31B492"/>
<path d="M77.0386 5.61911C76.7813 5.77201 76.8011 5.9058 77.1178 6.47918C77.3356 6.86143 77.5336 7.16724 77.5732 7.16724C77.9296 7.16724 78.4048 6.68942 78.4048 6.34539C78.4048 5.58089 77.7118 5.21775 77.0386 5.61911Z" fill="#31B492"/>
<path d="M63.1592 11.6587V15.3857H63.6542H64.1491V11.9836C64.1293 8.6007 64.1293 8.6007 63.6542 8.25667L63.1592 7.91264V11.6587Z" fill="#31B492"/>
<path d="M76.3652 13.1495C76.1078 13.4935 75.395 14.0287 74.8209 14.3345C73.4547 15.0416 71.059 15.2328 69.5147 14.7358C68.3069 14.3536 68.3069 14.3536 68.3069 14.7358C68.3069 14.8887 68.0496 15.2901 67.7328 15.5959C67.1586 16.1311 67.0992 16.1502 65.1589 16.1502H63.1592V16.8764C63.1592 18.1761 63.3968 18.2526 67.2972 18.2526C71.5144 18.2526 72.3658 17.985 73.4745 16.2457C73.8309 15.7106 73.8507 15.6915 73.8507 16.1119C73.8507 17.5645 72.0688 19.0171 70.2869 19.0171C69.1979 19.0171 69.2771 19.3993 70.4453 19.8962C71.5342 20.3549 72.0688 21.1768 72.0688 22.4L72.049 23.1263L71.5342 22.1133C70.9204 20.871 70.1483 20.3549 68.9009 20.3549C67.8318 20.3549 66.8814 20.871 66.327 21.7311C66.0103 22.228 65.9311 22.7058 65.9311 23.929C65.9311 26.0887 65.9311 26.0887 64.4263 26.0887H63.1592V26.815C63.1592 27.2164 63.2582 27.6369 63.3968 27.7706C63.5552 27.9235 64.6243 28 66.921 28C69.7127 28 70.4057 27.9427 71.3758 27.6177C73.7121 26.8341 75.4544 25.4007 76.385 23.4321C76.8998 22.3809 76.9196 22.2471 77.0186 17.4307C77.078 14.7358 77.0582 12.5188 76.9988 12.5188C76.9196 12.5188 76.6424 12.8055 76.3652 13.1495Z" fill="#31B492"/>
<path d="M63.1592 20.2402C63.1592 21.6546 63.179 21.6928 63.6542 21.6928C64.1293 21.6928 64.1491 21.6546 64.1491 20.3549C64.1491 19.6095 64.0699 19.017 63.9709 19.017C63.872 19.017 63.6542 18.9597 63.476 18.9024C63.1988 18.8068 63.1592 18.9979 63.1592 20.2402Z" fill="#31B492"/>
<path d="M67.4752 19.3611C67.396 19.6478 67.4752 19.686 67.9306 19.6287C68.6235 19.5331 68.7027 19.0171 68.0296 19.0171C67.7524 19.0171 67.5148 19.1509 67.4752 19.3611Z" fill="#31B492"/>
<path d="M63.1592 23.7952C63.1592 25.0949 63.179 25.1331 63.6542 25.1331C64.1293 25.1331 64.1491 25.0949 64.1491 23.7952C64.1491 22.4956 64.1293 22.4573 63.6542 22.4573C63.179 22.4573 63.1592 22.4956 63.1592 23.7952Z" fill="#31B492"/>
</svg>
